# xmcd
#
# Track frame offsets:
#	150
#	14250
#	28446
#	39872
#	51786
#	67322
#	75668
#	86669
#	99727
#	109014
#	121002
#	133372
#
# Disc length: 1959 seconds
#
# Revision: 1
# Processed by: cddbd v1.5.2PL0 Copyright (c) Steve Scherf et al.
# Submitted via: audiograbber 1.83.01
#
DISCID=a207a50c
DTITLE=Willie Nelson - My Own Peculiar Way
DYEAR=1969
DGENRE=Country
TTITLE0=My Own Peculiar Way
TTITLE1=I Walk Alone
TTITLE2=Any Old Arms Won't Do
TTITLE3=I Just Don't Understand
TTITLE4=I Just Dropped By
TTITLE5=Local Memory
TTITLE6=That's All
TTITLE7=I Let My Mind Wander
TTITLE8=Natural To Be Gone
TTITLE9=Love Has A Mind Of Its Own
TTITLE10=Message
TTITLE11=It Will Come To Pass
EXTD=
EXTT0=
EXTT1=
EXTT2=
EXTT3=
EXTT4=
EXTT5=
EXTT6=
EXTT7=
EXTT8=
EXTT9=
EXTT10=
EXTT11=
PLAYORDER=
